<svg width="368" height="54" viewBox="0 0 368 54" fill="none" xmlns="http://www.w3.org/2000/svg">
<path d="M0.375 53V0.636362H22.9773C26.8636 0.636362 30.2642 1.34375 33.179 2.75852C36.0938 4.17329 38.3608 6.21023 39.9801 8.86932C41.5994 11.5284 42.4091 14.7159 42.4091 18.4318C42.4091 22.1818 41.5739 25.3437 39.9034 27.9176C38.25 30.4915 35.9233 32.4347 32.9233 33.7472C29.9403 35.0597 26.4545 35.7159 22.4659 35.7159H8.96591V24.6705H19.6023C21.2727 24.6705 22.696 24.4659 23.8722 24.0568C25.0653 23.6307 25.9773 22.9574 26.608 22.0369C27.2557 21.1165 27.5795 19.9148 27.5795 18.4318C27.5795 16.9318 27.2557 15.7131 26.608 14.7756C25.9773 13.821 25.0653 13.1222 23.8722 12.679C22.696 12.2187 21.2727 11.9886 19.6023 11.9886H14.5909V53H0.375ZM31.0568 28.9659L44.1477 53H28.7045L15.9205 28.9659H31.0568ZM63.0477 53.7159C58.8545 53.7159 55.2409 52.9148 52.2068 51.3125C49.1898 49.6932 46.8631 47.375 45.2267 44.358C43.6074 41.3239 42.7977 37.6932 42.7977 33.4659C42.7977 29.4091 43.6159 25.8636 45.2523 22.8295C46.8886 19.7955 49.1983 17.4347 52.1813 15.7472C55.1642 14.0597 58.6841 13.2159 62.7409 13.2159C65.7068 13.2159 68.3915 13.6761 70.7949 14.5966C73.1983 15.517 75.2523 16.8551 76.9568 18.6108C78.6614 20.3494 79.9739 22.4631 80.8943 24.9517C81.8148 27.4403 82.275 30.2443 82.275 33.3636V36.6364H47.1955V28.8636H69.2864C69.2693 27.7386 68.9795 26.75 68.417 25.8977C67.8716 25.0284 67.1301 24.3551 66.1926 23.8778C65.2722 23.3835 64.2239 23.1364 63.0477 23.1364C61.9057 23.1364 60.8574 23.3835 59.9028 23.8778C58.9483 24.3551 58.1813 25.0199 57.6017 25.8722C57.0392 26.7244 56.7409 27.7216 56.7068 28.8636V37.25C56.7068 38.5114 56.971 39.6364 57.4994 40.625C58.0278 41.6136 58.7864 42.3892 59.775 42.9517C60.7636 43.5142 61.9568 43.7955 63.3545 43.7955C64.3261 43.7955 65.2125 43.6591 66.0136 43.3864C66.8318 43.1136 67.5307 42.7216 68.1102 42.2102C68.6898 41.6818 69.1159 41.0511 69.3886 40.3182H82.275C81.8318 43.0455 80.7835 45.4148 79.1301 47.4261C77.4767 49.4205 75.2864 50.9716 72.5591 52.0795C69.8489 53.1705 66.6784 53.7159 63.0477 53.7159ZM98.5479 30.9091V53H84.4342V13.7273H97.832V21.1932H98.2411C99.0933 18.7045 100.593 16.7528 102.741 15.3381C104.906 13.9233 107.429 13.2159 110.309 13.2159C113.088 13.2159 115.5 13.8551 117.545 15.1335C119.608 16.3949 121.201 18.1335 122.326 20.3494C123.468 22.5653 124.031 25.0966 124.014 27.9432V53H109.9V30.9091C109.917 28.9659 109.423 27.4403 108.417 26.3324C107.429 25.2244 106.048 24.6705 104.275 24.6705C103.116 24.6705 102.102 24.9261 101.233 25.4375C100.38 25.9318 99.724 26.6477 99.2638 27.5852C98.8036 28.5057 98.5649 29.6136 98.5479 30.9091ZM141.597 53.5114C138.802 53.5114 136.228 52.7784 133.875 51.3125C131.54 49.8466 129.665 47.6222 128.25 44.6392C126.853 41.6562 126.154 37.8977 126.154 33.3636C126.154 28.625 126.887 24.7727 128.353 21.8068C129.836 18.8409 131.745 16.6676 134.08 15.2869C136.432 13.9062 138.904 13.2159 141.495 13.2159C143.438 13.2159 145.142 13.5568 146.608 14.2386C148.074 14.9034 149.302 15.7983 150.29 16.9233C151.279 18.0312 152.029 19.25 152.54 20.5795H152.745V0.636362H166.858V53H152.847V46.5568H152.54C151.995 47.8864 151.211 49.0795 150.188 50.1364C149.182 51.1761 147.955 52.0028 146.506 52.6165C145.074 53.2131 143.438 53.5114 141.597 53.5114ZM146.813 42.6705C148.108 42.6705 149.216 42.2955 150.137 41.5455C151.074 40.7784 151.79 39.7045 152.285 38.3239C152.796 36.9261 153.052 35.2727 153.052 33.3636C153.052 31.4205 152.796 29.7585 152.285 28.3778C151.79 26.9801 151.074 25.9148 150.137 25.1818C149.216 24.4318 148.108 24.0568 146.813 24.0568C145.517 24.0568 144.41 24.4318 143.489 25.1818C142.586 25.9148 141.887 26.9801 141.392 28.3778C140.915 29.7585 140.677 31.4205 140.677 33.3636C140.677 35.3068 140.915 36.9773 141.392 38.375C141.887 39.7557 142.586 40.821 143.489 41.571C144.41 42.304 145.517 42.6705 146.813 42.6705ZM189.006 53.7159C184.812 53.7159 181.199 52.9148 178.165 51.3125C175.148 49.6932 172.821 47.375 171.185 44.358C169.565 41.3239 168.756 37.6932 168.756 33.4659C168.756 29.4091 169.574 25.8636 171.21 22.8295C172.846 19.7955 175.156 17.4347 178.139 15.7472C181.122 14.0597 184.642 13.2159 188.699 13.2159C191.665 13.2159 194.349 13.6761 196.753 14.5966C199.156 15.517 201.21 16.8551 202.915 18.6108C204.619 20.3494 205.932 22.4631 206.852 24.9517C207.773 27.4403 208.233 30.2443 208.233 33.3636V36.6364H173.153V28.8636H195.244C195.227 27.7386 194.937 26.75 194.375 25.8977C193.829 25.0284 193.088 24.3551 192.15 23.8778C191.23 23.3835 190.182 23.1364 189.006 23.1364C187.864 23.1364 186.815 23.3835 185.861 23.8778C184.906 24.3551 184.139 25.0199 183.56 25.8722C182.997 26.7244 182.699 27.7216 182.665 28.8636V37.25C182.665 38.5114 182.929 39.6364 183.457 40.625C183.986 41.6136 184.744 42.3892 185.733 42.9517C186.721 43.5142 187.915 43.7955 189.312 43.7955C190.284 43.7955 191.17 43.6591 191.971 43.3864C192.79 43.1136 193.489 42.7216 194.068 42.2102C194.648 41.6818 195.074 41.0511 195.346 40.3182H208.233C207.79 43.0455 206.741 45.4148 205.088 47.4261C203.435 49.4205 201.244 50.9716 198.517 52.0795C195.807 53.1705 192.636 53.7159 189.006 53.7159ZM210.392 53V13.7273H224.097V21.1932H224.506C225.222 18.4318 226.355 16.4119 227.906 15.1335C229.474 13.8551 231.307 13.2159 233.403 13.2159C234.017 13.2159 234.622 13.267 235.219 13.3693C235.832 13.4545 236.42 13.5824 236.983 13.7528V25.7955C236.284 25.5568 235.423 25.3778 234.401 25.2585C233.378 25.1392 232.5 25.0795 231.767 25.0795C230.386 25.0795 229.142 25.3949 228.034 26.0256C226.943 26.6392 226.082 27.5085 225.452 28.6335C224.821 29.7415 224.506 31.0455 224.506 32.5455V53H210.392ZM237.806 53V0.636362H260.409C264.295 0.636362 267.695 1.40341 270.61 2.9375C273.525 4.47159 275.792 6.62784 277.411 9.40625C279.031 12.1847 279.84 15.4318 279.84 19.1477C279.84 22.8977 279.005 26.1449 277.335 28.8892C275.681 31.6335 273.355 33.7472 270.355 35.2301C267.372 36.7131 263.886 37.4545 259.897 37.4545H246.397V26.4091H257.034C258.704 26.4091 260.127 26.1193 261.303 25.5398C262.497 24.9432 263.409 24.0994 264.039 23.0085C264.687 21.9176 265.011 20.6307 265.011 19.1477C265.011 17.6477 264.687 16.3693 264.039 15.3125C263.409 14.2386 262.497 13.4205 261.303 12.858C260.127 12.2784 258.704 11.9886 257.034 11.9886H252.022V53H237.806ZM301.604 53H281.456V0.636362H301.399C306.786 0.636362 311.439 1.68466 315.36 3.78125C319.297 5.86079 322.331 8.86079 324.462 12.7812C326.61 16.6847 327.684 21.3636 327.684 26.8182C327.684 32.2727 326.618 36.9602 324.487 40.8807C322.357 44.7841 319.34 47.7841 315.436 49.8807C311.533 51.9602 306.922 53 301.604 53ZM295.672 40.9318H301.093C303.684 40.9318 305.891 40.5142 307.715 39.679C309.556 38.8437 310.953 37.4034 311.908 35.358C312.88 33.3125 313.365 30.4659 313.365 26.8182C313.365 23.1705 312.871 20.3239 311.882 18.2784C310.911 16.233 309.479 14.7926 307.587 13.9574C305.712 13.1222 303.411 12.7045 300.684 12.7045H295.672V40.9318ZM330.661 53V0.636362H367.479V12.0909H344.877V21.0909H365.229V32.5455H344.877V53H330.661Z" fill="url(#paint0_linear_4_2)"/>
<defs>
<linearGradient id="paint0_linear_4_2" x1="91.5017" y1="39.5" x2="171.245" y2="-1.93216" gradientUnits="userSpaceOnUse">
<stop stop-color="#12059E" stop-opacity="0.76"/>
<stop offset="1" stop-color="#5F108F"/>
</linearGradient>
</defs>
</svg>
